<svg width="24" height="24" viewBox="0 0 24 24" fill="none" xmlns="http://www.w3.org/2000/svg">
<g clip-path="url(#clip0_36724_3748)">
<path d="M23.8385 9.80859C23.8385 9.80859 24.0001 11.4868 24.0001 12.0423C24.0001 12.629 23.8385 14.3774 23.8385 14.3774C23.8382 14.38 23.8378 14.3826 23.8374 14.3852C23.4591 17.0066 22.4018 19.3671 20.4723 21.0641L16.507 18.1479C16.8084 17.9537 17.0945 17.7388 17.3632 17.505C18.3198 16.6733 18.7834 15.5999 18.9973 14.3852H12.3047V9.80859H23.8386H23.8385Z" fill="#4386F7"/>
<path d="M20.5277 3.13884L16.9999 6.53029C15.7273 5.49414 14.1727 4.73445 12.393 4.73445C9.1229 4.73445 6.34308 6.78555 5.32719 9.64307L1.30078 6.68185C3.3285 2.73545 7.51198 0 12.3045 0C15.4405 0 18.3546 1.23639 20.5199 3.13204C20.5225 3.13433 20.5252 3.13654 20.5276 3.13884H20.5277Z" fill="#EE4131"/>
<path d="M20.4719 21.0633C20.4589 21.0749 20.4457 21.0863 20.4327 21.0977C18.2711 22.9772 15.3569 23.999 12.2359 23.999C7.44078 23.999 3.28976 21.3036 1.2832 17.3784L5.31657 14.4121C6.32415 17.2846 9.11157 19.3495 12.3926 19.3495C13.9121 19.3495 15.3264 18.9075 16.5066 18.1471L20.4719 21.0632V21.0633Z" fill="#33A951"/>
<path d="M5.31675 14.4129L1.28339 17.3792C0.462098 15.7727 0 13.9602 0 12.0422C0 10.1242 0.469062 8.29986 1.30066 6.68164L5.32706 9.64285C5.05975 10.3944 4.91452 11.2017 4.91452 12.0422C4.91452 12.8827 5.05604 13.6695 5.31675 14.4127V14.4129Z" fill="#FFBE00"/>
</g>
<defs>
<clipPath id="clip0_36724_3748">
<rect width="24" height="24" fill="white"/>
</clipPath>
</defs>
</svg>
