<svg width="393" height="566" viewBox="0 0 393 566" fill="none" xmlns="http://www.w3.org/2000/svg">
<g filter="url(#filter0_f_37857_1180)">
<path d="M40 236C40 149.844 109.844 80 196 80C282.156 80 352 149.844 352 236V329.333C352 415.49 282.156 485.333 196 485.333C109.844 485.333 40 415.49 40 329.333V236Z" fill="#C9A367" fill-opacity="0.1"/>
</g>
<g filter="url(#filter1_d_37857_1180)">
<g clip-path="url(#clip0_37857_1180)">
<mask id="path-2-inside-1_37857_1180" fill="white">
<path d="M56 120C56 106.745 66.7452 96 80 96H312C325.255 96 336 106.745 336 120V445.333C336 458.588 325.255 469.333 312 469.333H80C66.7452 469.333 56 458.588 56 445.333V120Z"/>
</mask>
<path d="M56 120C56 106.745 66.7452 96 80 96H312C325.255 96 336 106.745 336 120V445.333C336 458.588 325.255 469.333 312 469.333H80C66.7452 469.333 56 458.588 56 445.333V120Z" fill="url(#paint0_linear_37857_1180)" shape-rendering="crispEdges"/>
<g opacity="0.3">
<path d="M75.1362 106.102C75.3748 106.104 75.6135 106.15 75.8521 106.239C76.0907 106.328 76.3085 106.475 76.5055 106.682C76.7025 106.886 76.8606 107.166 76.9799 107.52C77.0993 107.874 77.1589 108.318 77.1589 108.852C77.1589 109.369 77.1097 109.829 77.0112 110.23C76.9146 110.63 76.7744 110.967 76.5907 111.241C76.4089 111.516 76.1873 111.724 75.926 111.866C75.6665 112.009 75.3729 112.08 75.0453 112.08C74.7195 112.08 74.4288 112.015 74.1731 111.886C73.9193 111.756 73.711 111.575 73.5481 111.344C73.3871 111.111 73.2839 110.841 73.2385 110.534H73.9316C73.9941 110.801 74.1182 111.022 74.3038 111.196C74.4913 111.368 74.7385 111.455 75.0453 111.455C75.4941 111.455 75.8483 111.259 76.1078 110.866C76.3691 110.474 76.4998 109.92 76.4998 109.205H76.4544C76.3483 109.364 76.2224 109.501 76.0765 109.616C75.9307 109.732 75.7688 109.821 75.5907 109.884C75.4127 109.946 75.2233 109.977 75.0225 109.977C74.6892 109.977 74.3833 109.895 74.1049 109.73C73.8284 109.563 73.6068 109.335 73.4402 109.045C73.2754 108.754 73.193 108.42 73.193 108.045C73.193 107.689 73.2725 107.364 73.4316 107.068C73.5926 106.771 73.818 106.534 74.1078 106.358C74.3994 106.182 74.7422 106.097 75.1362 106.102ZM75.1362 106.727C74.8975 106.727 74.6826 106.787 74.4913 106.906C74.3019 107.024 74.1513 107.183 74.0396 107.384C73.9297 107.582 73.8748 107.803 73.8748 108.045C73.8748 108.288 73.9279 108.509 74.0339 108.707C74.1419 108.904 74.2886 109.062 74.4743 109.179C74.6618 109.295 74.8748 109.352 75.1135 109.352C75.2934 109.352 75.461 109.317 75.6163 109.247C75.7716 109.175 75.907 109.078 76.0225 108.955C76.14 108.83 76.2318 108.688 76.2981 108.531C76.3644 108.372 76.3975 108.206 76.3975 108.034C76.3975 107.807 76.3426 107.594 76.2328 107.395C76.1248 107.196 75.9752 107.035 75.7839 106.912C75.5945 106.789 75.3786 106.727 75.1362 106.727ZM78.7761 111.256C78.6359 111.256 78.5157 111.205 78.4153 111.105C78.3149 111.005 78.2647 110.884 78.2647 110.744C78.2647 110.604 78.3149 110.484 78.4153 110.384C78.5157 110.283 78.6359 110.233 78.7761 110.233C78.9163 110.233 79.0365 110.283 79.1369 110.384C79.2373 110.484 79.2875 110.604 79.2875 110.744C79.2875 110.837 79.2638 110.922 79.2164 111C79.171 111.078 79.1094 111.14 79.0318 111.188C78.956 111.233 78.8708 111.256 78.7761 111.256ZM78.7761 108.312C78.6359 108.312 78.5157 108.262 78.4153 108.162C78.3149 108.062 78.2647 107.941 78.2647 107.801C78.2647 107.661 78.3149 107.541 78.4153 107.44C78.5157 107.34 78.6359 107.29 78.7761 107.29C78.9163 107.29 79.0365 107.34 79.1369 107.44C79.2373 107.541 79.2875 107.661 79.2875 107.801C79.2875 107.894 79.2638 107.979 79.2164 108.057C79.171 108.134 79.1094 108.197 79.0318 108.244C78.956 108.29 78.8708 108.312 78.7761 108.312ZM80.3429 110.807V110.227L82.8997 106.182H83.3201V107.08H83.036L81.1042 110.136V110.182H84.5474V110.807H80.3429ZM83.0815 112V110.631V110.361V106.182H83.752V112H83.0815ZM87.5794 106.182V112H86.8748V106.92H86.8407L85.4203 107.864V107.148L86.8748 106.182H87.5794Z" fill="white"/>
<path d="M299.332 108.666C299.332 107.561 300.227 106.666 301.332 106.666H309.332C310.437 106.666 311.332 107.561 311.332 108.666C311.332 109.771 310.437 110.666 309.332 110.666H301.332C300.227 110.666 299.332 109.771 299.332 108.666Z" fill="white"/>
<path d="M315.332 108.666C315.332 107.561 316.227 106.666 317.332 106.666C318.437 106.666 319.332 107.561 319.332 108.666C319.332 109.771 318.437 110.666 317.332 110.666C316.227 110.666 315.332 109.771 315.332 108.666Z" fill="white"/>
</g>
<path d="M72.666 142.666C72.666 139.352 75.3523 136.666 78.666 136.666H162.666C165.98 136.666 168.666 139.352 168.666 142.666C168.666 145.98 165.98 148.666 162.666 148.666H78.666C75.3523 148.666 72.666 145.98 72.666 142.666Z" fill="#3F3F47" fill-opacity="0.5"/>
<mask id="path-8-inside-2_37857_1180" fill="white">
<path d="M72.666 164.666H319.333V260.666H72.666V164.666Z"/>
</mask>
<path d="M319.333 260.666V259.999H72.666V260.666V261.333H319.333V260.666Z" fill="#3F3F47" fill-opacity="0.5" mask="url(#path-8-inside-2_37857_1180)"/>
<g opacity="0.8">
<path d="M80.666 223.069C80.666 221.081 82.2778 219.469 84.266 219.469H108.847C110.835 219.469 112.447 221.081 112.447 223.069V256H80.666V223.069Z" fill="url(#paint1_linear_37857_1180)"/>
</g>
<g opacity="0.8">
<path d="M120.447 195.672C120.447 193.684 122.059 192.072 124.047 192.072H148.618C150.606 192.072 152.218 193.684 152.218 195.672V255.999H120.447V195.672Z" fill="url(#paint2_linear_37857_1180)"/>
</g>
<g opacity="0.8">
<path d="M160.219 213.932C160.219 211.944 161.831 210.332 163.819 210.332H188.4C190.388 210.332 192 211.944 192 213.932V255.999H160.219V213.932Z" fill="url(#paint3_linear_37857_1180)"/>
</g>
<g opacity="0.8">
<path d="M200 177.401C200 175.413 201.612 173.801 203.6 173.801H228.171C230.159 173.801 231.771 175.413 231.771 177.401V255.999H200V177.401Z" fill="url(#paint4_linear_37857_1180)"/>
</g>
<g opacity="0.8">
<path d="M239.77 204.807C239.77 202.819 241.381 201.207 243.37 201.207H267.951C269.939 201.207 271.551 202.819 271.551 204.807V255.999H239.77V204.807Z" fill="url(#paint5_linear_37857_1180)"/>
</g>
<g opacity="0.8">
<path d="M279.551 186.537C279.551 184.549 281.163 182.938 283.151 182.938H307.732C309.72 182.938 311.332 184.549 311.332 186.537V256H279.551V186.537Z" fill="url(#paint6_linear_37857_1180)"/>
</g>
<mask id="path-16-inside-3_37857_1180" fill="white">
<path d="M72.666 286.666C72.666 281.143 77.1432 276.666 82.666 276.666H181.999C187.522 276.666 191.999 281.143 191.999 286.666V325.999C191.999 331.522 187.522 335.999 181.999 335.999H82.666C77.1432 335.999 72.666 331.522 72.666 325.999V286.666Z"/>
</mask>
<path d="M72.666 286.666C72.666 281.143 77.1432 276.666 82.666 276.666H181.999C187.522 276.666 191.999 281.143 191.999 286.666V325.999C191.999 331.522 187.522 335.999 181.999 335.999H82.666C77.1432 335.999 72.666 331.522 72.666 325.999V286.666Z" fill="#27272A" fill-opacity="0.4"/>
<path d="M82.666 276.666V277.333H181.999V276.666V275.999H82.666V276.666ZM191.999 286.666H191.333V325.999H191.999H192.666V286.666H191.999ZM181.999 335.999V335.333H82.666V335.999V336.666H181.999V335.999ZM72.666 325.999H73.3327V286.666H72.666H71.9993V325.999H72.666ZM82.666 335.999V335.333C77.5114 335.333 73.3327 331.154 73.3327 325.999H72.666H71.9993C71.9993 331.89 76.775 336.666 82.666 336.666V335.999ZM191.999 325.999H191.333C191.333 331.154 187.154 335.333 181.999 335.333V335.999V336.666C187.89 336.666 192.666 331.89 192.666 325.999H191.999ZM181.999 276.666V277.333C187.154 277.333 191.333 281.511 191.333 286.666H191.999H192.666C192.666 280.775 187.89 275.999 181.999 275.999V276.666ZM82.666 276.666V275.999C76.775 275.999 71.9993 280.775 71.9993 286.666H72.666H73.3327C73.3327 281.511 77.5114 277.333 82.666 277.333V276.666Z" fill="#3F3F47" fill-opacity="0.3" mask="url(#path-16-inside-3_37857_1180)"/>
<g clip-path="url(#clip1_37857_1180)">
<path d="M89.332 295.832V294.832C89.332 294.302 89.1213 293.793 88.7462 293.418C88.3712 293.043 87.8625 292.832 87.332 292.832H84.332C83.8016 292.832 83.2929 293.043 82.9178 293.418C82.5427 293.793 82.332 294.302 82.332 294.832V295.832" stroke="#71717B" stroke-linecap="round" stroke-linejoin="round"/>
<path d="M89.332 286.896C89.7609 287.008 90.1407 287.258 90.4119 287.609C90.683 287.959 90.8301 288.389 90.8301 288.832C90.8301 289.276 90.683 289.706 90.4119 290.056C90.1407 290.407 89.7609 290.657 89.332 290.768" stroke="#71717B" stroke-linecap="round" stroke-linejoin="round"/>
<path d="M92.332 295.831V294.831C92.3317 294.388 92.1842 293.958 91.9127 293.608C91.6412 293.257 91.2611 293.007 90.832 292.896" stroke="#71717B" stroke-linecap="round" stroke-linejoin="round"/>
<path d="M85.832 290.832C86.9366 290.832 87.832 289.937 87.832 288.832C87.832 287.727 86.9366 286.832 85.832 286.832C84.7275 286.832 83.832 287.727 83.832 288.832C83.832 289.937 84.7275 290.832 85.832 290.832Z" stroke="#71717B" stroke-linecap="round" stroke-linejoin="round"/>
</g>
<path d="M81.332 309.332C81.332 306.018 84.0183 303.332 87.332 303.332H115.332C118.646 303.332 121.332 306.018 121.332 309.332C121.332 312.646 118.646 315.332 115.332 315.332H87.332C84.0183 315.332 81.332 312.646 81.332 309.332Z" fill="white" fill-opacity="0.2"/>
<path d="M81.332 324.332C81.332 322.675 82.6752 321.332 84.332 321.332H134.332C135.989 321.332 137.332 322.675 137.332 324.332C137.332 325.989 135.989 327.332 134.332 327.332H84.332C82.6752 327.332 81.332 325.989 81.332 324.332Z" fill="#52525C" fill-opacity="0.3"/>
<mask id="path-24-inside-4_37857_1180" fill="white">
<path d="M200 286.666C200 281.143 204.477 276.666 210 276.666H309.333C314.856 276.666 319.333 281.143 319.333 286.666V325.999C319.333 331.522 314.856 335.999 309.333 335.999H210C204.477 335.999 200 331.522 200 325.999V286.666Z"/>
</mask>
<path d="M200 286.666C200 281.143 204.477 276.666 210 276.666H309.333C314.856 276.666 319.333 281.143 319.333 286.666V325.999C319.333 331.522 314.856 335.999 309.333 335.999H210C204.477 335.999 200 331.522 200 325.999V286.666Z" fill="#27272A" fill-opacity="0.4"/>
<path d="M210 276.666V277.333H309.333V276.666V275.999H210V276.666ZM319.333 286.666H318.667V325.999H319.333H320V286.666H319.333ZM309.333 335.999V335.333H210V335.999V336.666H309.333V335.999ZM200 325.999H200.667V286.666H200H199.333V325.999H200ZM210 335.999V335.333C204.845 335.333 200.667 331.154 200.667 325.999H200H199.333C199.333 331.89 204.109 336.666 210 336.666V335.999ZM319.333 325.999H318.667C318.667 331.154 314.488 335.333 309.333 335.333V335.999V336.666C315.224 336.666 320 331.89 320 325.999H319.333ZM309.333 276.666V277.333C314.488 277.333 318.667 281.511 318.667 286.666H319.333H320C320 280.775 315.224 275.999 309.333 275.999V276.666ZM210 276.666V275.999C204.109 275.999 199.333 280.775 199.333 286.666H200H200.667C200.667 281.511 204.845 277.333 210 277.333V276.666Z" fill="#3F3F47" fill-opacity="0.3" mask="url(#path-24-inside-4_37857_1180)"/>
<g clip-path="url(#clip2_37857_1180)">
<path d="M216.666 288.832H219.666V291.832" stroke="#00C950" stroke-linecap="round" stroke-linejoin="round"/>
<path d="M219.666 288.832L215.416 293.082L212.916 290.582L209.666 293.832" stroke="#00C950" stroke-linecap="round" stroke-linejoin="round"/>
</g>
<path d="M208.666 309.332C208.666 306.018 211.352 303.332 214.666 303.332H250.666C253.98 303.332 256.666 306.018 256.666 309.332C256.666 312.646 253.98 315.332 250.666 315.332H214.666C211.352 315.332 208.666 312.646 208.666 309.332Z" fill="white" fill-opacity="0.2"/>
<path d="M208.666 324.332C208.666 322.675 210.009 321.332 211.666 321.332H261.666C263.323 321.332 264.666 322.675 264.666 324.332C264.666 325.989 263.323 327.332 261.666 327.332H211.666C210.009 327.332 208.666 325.989 208.666 324.332Z" fill="#52525C" fill-opacity="0.3"/>
</g>
<path d="M80 96V96.6667H312V96V95.3333H80V96ZM336 120H335.333V445.333H336H336.667V120H336ZM312 469.333V468.667H80V469.333V470H312V469.333ZM56 445.333H56.6667V120H56H55.3333V445.333H56ZM80 469.333V468.667C67.1134 468.667 56.6667 458.22 56.6667 445.333H56H55.3333C55.3333 458.956 66.377 470 80 470V469.333ZM336 445.333H335.333C335.333 458.22 324.887 468.667 312 468.667V469.333V470C325.623 470 336.667 458.956 336.667 445.333H336ZM312 96V96.6667C324.887 96.6667 335.333 107.113 335.333 120H336H336.667C336.667 106.377 325.623 95.3333 312 95.3333V96ZM80 96V95.3333C66.377 95.3333 55.3333 106.377 55.3333 120H56H56.6667C56.6667 107.113 67.1134 96.6667 80 96.6667V96Z" fill="#27272A" fill-opacity="0.5" mask="url(#path-2-inside-1_37857_1180)"/>
</g>
<defs>
<filter id="filter0_f_37857_1180" x="-40" y="0" width="472" height="565.334" filterUnits="userSpaceOnUse" color-interpolation-filters="sRGB">
<feFlood flood-opacity="0" result="BackgroundImageFix"/>
<feBlend mode="normal" in="SourceGraphic" in2="BackgroundImageFix" result="shape"/>
<feGaussianBlur stdDeviation="40" result="effect1_foregroundBlur_37857_1180"/>
</filter>
<filter id="filter1_d_37857_1180" x="18" y="83" width="356" height="449.334" filterUnits="userSpaceOnUse" color-interpolation-filters="sRGB">
<feFlood flood-opacity="0" result="BackgroundImageFix"/>
<feColorMatrix in="SourceAlpha" type="matrix" values="0 0 0 0 0 0 0 0 0 0 0 0 0 0 0 0 0 0 127 0" result="hardAlpha"/>
<feMorphology radius="12" operator="erode" in="SourceAlpha" result="effect1_dropShadow_37857_1180"/>
<feOffset dy="25"/>
<feGaussianBlur stdDeviation="25"/>
<feComposite in2="hardAlpha" operator="out"/>
<feColorMatrix type="matrix" values="0 0 0 0 0 0 0 0 0 0 0 0 0 0 0 0 0 0 0.25 0"/>
<feBlend mode="normal" in2="BackgroundImageFix" result="effect1_dropShadow_37857_1180"/>
<feBlend mode="normal" in="SourceGraphic" in2="effect1_dropShadow_37857_1180" result="shape"/>
</filter>
<linearGradient id="paint0_linear_37857_1180" x1="196" y1="96" x2="196" y2="469.333" gradientUnits="userSpaceOnUse">
<stop stop-color="#27272A" stop-opacity="0.3"/>
<stop offset="1" stop-color="#18181B" stop-opacity="0.3"/>
</linearGradient>
<linearGradient id="paint1_linear_37857_1180" x1="96.5566" y1="219.469" x2="96.5566" y2="256" gradientUnits="userSpaceOnUse">
<stop stop-color="#C9A367"/>
<stop offset="1" stop-color="#D0AA69" stop-opacity="0.7"/>
</linearGradient>
<linearGradient id="paint2_linear_37857_1180" x1="136.333" y1="192.072" x2="136.333" y2="255.999" gradientUnits="userSpaceOnUse">
<stop stop-color="#C9A367"/>
<stop offset="1" stop-color="#D0AA69" stop-opacity="0.7"/>
</linearGradient>
<linearGradient id="paint3_linear_37857_1180" x1="176.109" y1="210.332" x2="176.109" y2="255.999" gradientUnits="userSpaceOnUse">
<stop stop-color="#C9A367"/>
<stop offset="1" stop-color="#D0AA69" stop-opacity="0.7"/>
</linearGradient>
<linearGradient id="paint4_linear_37857_1180" x1="215.885" y1="173.801" x2="215.885" y2="255.999" gradientUnits="userSpaceOnUse">
<stop stop-color="#C9A367"/>
<stop offset="1" stop-color="#D0AA69" stop-opacity="0.7"/>
</linearGradient>
<linearGradient id="paint5_linear_37857_1180" x1="255.66" y1="201.207" x2="255.66" y2="255.999" gradientUnits="userSpaceOnUse">
<stop stop-color="#C9A367"/>
<stop offset="1" stop-color="#D0AA69" stop-opacity="0.7"/>
</linearGradient>
<linearGradient id="paint6_linear_37857_1180" x1="295.441" y1="182.938" x2="295.441" y2="256" gradientUnits="userSpaceOnUse">
<stop stop-color="#C9A367"/>
<stop offset="1" stop-color="#D0AA69" stop-opacity="0.7"/>
</linearGradient>
<clipPath id="clip0_37857_1180">
<path d="M56 120C56 106.745 66.7452 96 80 96H312C325.255 96 336 106.745 336 120V445.333C336 458.588 325.255 469.333 312 469.333H80C66.7452 469.333 56 458.588 56 445.333V120Z" fill="white"/>
</clipPath>
<clipPath id="clip1_37857_1180">
<rect width="12" height="12" fill="white" transform="translate(81.332 285.332)"/>
</clipPath>
<clipPath id="clip2_37857_1180">
<rect width="12" height="12" fill="white" transform="translate(208.666 285.332)"/>
</clipPath>
</defs>
</svg>
