<svg width="393" height="566" viewBox="0 0 393 566" fill="none" xmlns="http://www.w3.org/2000/svg">
<g filter="url(#filter0_f_37857_937)">
<path d="M40 236C40 149.844 109.844 80 196 80C282.156 80 352 149.844 352 236V329.333C352 415.49 282.156 485.333 196 485.333C109.844 485.333 40 415.49 40 329.333V236Z" fill="#C9A367" fill-opacity="0.1"/>
</g>
<g filter="url(#filter1_d_37857_937)">
<g clip-path="url(#clip0_37857_937)">
<mask id="path-2-inside-1_37857_937" fill="white">
<path d="M56 120C56 106.745 66.7452 96 80 96H312C325.255 96 336 106.745 336 120V445.333C336 458.588 325.255 469.333 312 469.333H80C66.7452 469.333 56 458.588 56 445.333V120Z"/>
</mask>
<path d="M56 120C56 106.745 66.7452 96 80 96H312C325.255 96 336 106.745 336 120V445.333C336 458.588 325.255 469.333 312 469.333H80C66.7452 469.333 56 458.588 56 445.333V120Z" fill="url(#paint0_linear_37857_937)" shape-rendering="crispEdges"/>
<g opacity="0.3">
<path d="M75.1362 106.102C75.3748 106.104 75.6135 106.15 75.8521 106.239C76.0907 106.328 76.3085 106.475 76.5055 106.682C76.7025 106.886 76.8606 107.166 76.9799 107.52C77.0993 107.874 77.1589 108.318 77.1589 108.852C77.1589 109.369 77.1097 109.829 77.0112 110.23C76.9146 110.63 76.7744 110.967 76.5907 111.241C76.4089 111.516 76.1873 111.724 75.926 111.866C75.6665 112.009 75.3729 112.08 75.0453 112.08C74.7195 112.08 74.4288 112.015 74.1731 111.886C73.9193 111.756 73.711 111.575 73.5481 111.344C73.3871 111.111 73.2839 110.841 73.2385 110.534H73.9316C73.9941 110.801 74.1182 111.022 74.3038 111.196C74.4913 111.368 74.7385 111.455 75.0453 111.455C75.4941 111.455 75.8483 111.259 76.1078 110.866C76.3691 110.474 76.4998 109.92 76.4998 109.205H76.4544C76.3483 109.364 76.2224 109.501 76.0765 109.616C75.9307 109.732 75.7688 109.821 75.5907 109.884C75.4127 109.946 75.2233 109.977 75.0225 109.977C74.6892 109.977 74.3833 109.895 74.1049 109.73C73.8284 109.563 73.6068 109.335 73.4402 109.045C73.2754 108.754 73.193 108.42 73.193 108.045C73.193 107.689 73.2725 107.364 73.4316 107.068C73.5926 106.771 73.818 106.534 74.1078 106.358C74.3994 106.182 74.7422 106.097 75.1362 106.102ZM75.1362 106.727C74.8975 106.727 74.6826 106.787 74.4913 106.906C74.3019 107.024 74.1513 107.183 74.0396 107.384C73.9297 107.582 73.8748 107.803 73.8748 108.045C73.8748 108.288 73.9279 108.509 74.0339 108.707C74.1419 108.904 74.2886 109.062 74.4743 109.179C74.6618 109.295 74.8748 109.352 75.1135 109.352C75.2934 109.352 75.461 109.317 75.6163 109.247C75.7716 109.175 75.907 109.078 76.0225 108.955C76.14 108.83 76.2318 108.688 76.2981 108.531C76.3644 108.372 76.3975 108.206 76.3975 108.034C76.3975 107.807 76.3426 107.594 76.2328 107.395C76.1248 107.196 75.9752 107.035 75.7839 106.912C75.5945 106.789 75.3786 106.727 75.1362 106.727ZM78.7761 111.256C78.6359 111.256 78.5157 111.205 78.4153 111.105C78.3149 111.005 78.2647 110.884 78.2647 110.744C78.2647 110.604 78.3149 110.484 78.4153 110.384C78.5157 110.283 78.6359 110.233 78.7761 110.233C78.9163 110.233 79.0365 110.283 79.1369 110.384C79.2373 110.484 79.2875 110.604 79.2875 110.744C79.2875 110.837 79.2638 110.922 79.2164 111C79.171 111.078 79.1094 111.14 79.0318 111.188C78.956 111.233 78.8708 111.256 78.7761 111.256ZM78.7761 108.312C78.6359 108.312 78.5157 108.262 78.4153 108.162C78.3149 108.062 78.2647 107.941 78.2647 107.801C78.2647 107.661 78.3149 107.541 78.4153 107.44C78.5157 107.34 78.6359 107.29 78.7761 107.29C78.9163 107.29 79.0365 107.34 79.1369 107.44C79.2373 107.541 79.2875 107.661 79.2875 107.801C79.2875 107.894 79.2638 107.979 79.2164 108.057C79.171 108.134 79.1094 108.197 79.0318 108.244C78.956 108.29 78.8708 108.312 78.7761 108.312ZM80.3429 110.807V110.227L82.8997 106.182H83.3201V107.08H83.036L81.1042 110.136V110.182H84.5474V110.807H80.3429ZM83.0815 112V110.631V110.361V106.182H83.752V112H83.0815ZM87.5794 106.182V112H86.8748V106.92H86.8407L85.4203 107.864V107.148L86.8748 106.182H87.5794Z" fill="white"/>
<path d="M299.332 108.666C299.332 107.561 300.227 106.666 301.332 106.666H309.332C310.437 106.666 311.332 107.561 311.332 108.666C311.332 109.771 310.437 110.666 309.332 110.666H301.332C300.227 110.666 299.332 109.771 299.332 108.666Z" fill="white"/>
<path d="M315.332 108.666C315.332 107.561 316.227 106.666 317.332 106.666C318.437 106.666 319.332 107.561 319.332 108.666C319.332 109.771 318.437 110.666 317.332 110.666C316.227 110.666 315.332 109.771 315.332 108.666Z" fill="white"/>
</g>
<g clip-path="url(#clip1_37857_937)">
<path d="M72.666 148.666C72.666 145.352 75.3523 142.666 78.666 142.666H146.666C149.98 142.666 152.666 145.352 152.666 148.666C152.666 151.98 149.98 154.666 146.666 154.666H78.666C75.3523 154.666 72.666 151.98 72.666 148.666Z" fill="#3F3F47" fill-opacity="0.5"/>
<mask id="path-8-inside-2_37857_937" fill="white">
<path d="M295.332 148.666C295.332 142.039 300.705 136.666 307.332 136.666C313.959 136.666 319.332 142.039 319.332 148.666C319.332 155.293 313.959 160.666 307.332 160.666C300.705 160.666 295.332 155.293 295.332 148.666Z"/>
</mask>
<path d="M295.332 148.666C295.332 142.039 300.705 136.666 307.332 136.666C313.959 136.666 319.332 142.039 319.332 148.666C319.332 155.293 313.959 160.666 307.332 160.666C300.705 160.666 295.332 155.293 295.332 148.666Z" fill="#27272A"/>
<path d="M295.332 148.666M319.332 148.666M319.332 148.666M295.332 148.666M307.332 136.666M319.332 148.666M307.332 160.666M295.332 148.666M307.332 160.666V159.999C301.073 159.999 295.999 154.925 295.999 148.666H295.332H294.665C294.665 155.662 300.336 161.333 307.332 161.333V160.666ZM319.332 148.666H318.665C318.665 154.925 313.591 159.999 307.332 159.999V160.666V161.333C314.328 161.333 319.999 155.662 319.999 148.666H319.332ZM307.332 136.666V137.333C313.591 137.333 318.665 142.407 318.665 148.666H319.332H319.999C319.999 141.67 314.328 135.999 307.332 135.999V136.666ZM307.332 136.666V135.999C300.336 135.999 294.665 141.67 294.665 148.666H295.332H295.999C295.999 142.407 301.073 137.333 307.332 137.333V136.666Z" fill="#3F3F47" mask="url(#path-8-inside-2_37857_937)"/>
<g clip-path="url(#clip2_37857_937)">
<path d="M305.666 144.5V146.167" stroke="#71717B" stroke-width="0.833333" stroke-linecap="round" stroke-linejoin="round"/>
<path d="M308.998 144.5V146.167" stroke="#71717B" stroke-width="0.833333" stroke-linecap="round" stroke-linejoin="round"/>
<path d="M310.249 145.332H304.415C303.955 145.332 303.582 145.705 303.582 146.165V151.999C303.582 152.459 303.955 152.832 304.415 152.832H310.249C310.709 152.832 311.082 152.459 311.082 151.999V146.165C311.082 145.705 310.709 145.332 310.249 145.332Z" stroke="#71717B" stroke-width="0.833333" stroke-linecap="round" stroke-linejoin="round"/>
<path d="M303.582 147.832H311.082" stroke="#71717B" stroke-width="0.833333" stroke-linecap="round" stroke-linejoin="round"/>
</g>
<mask id="path-14-inside-3_37857_937" fill="white">
<path d="M72.666 197.066C72.666 188.009 80.0085 180.666 89.066 180.666H302.933C311.99 180.666 319.333 188.009 319.333 197.066V213.599C319.333 222.657 311.99 229.999 302.933 229.999H89.066C80.0085 229.999 72.666 222.657 72.666 213.599V197.066Z"/>
</mask>
<path d="M72.666 197.066C72.666 188.009 80.0085 180.666 89.066 180.666H302.933C311.99 180.666 319.333 188.009 319.333 197.066V213.599C319.333 222.657 311.99 229.999 302.933 229.999H89.066C80.0085 229.999 72.666 222.657 72.666 213.599V197.066Z" fill="#27272A" fill-opacity="0.3"/>
<path d="M89.066 180.666V181.333H302.933V180.666V179.999H89.066V180.666ZM319.333 197.066H318.666V213.599H319.333H319.999V197.066H319.333ZM302.933 229.999V229.333H89.066V229.999V230.666H302.933V229.999ZM72.666 213.599H73.3327V197.066H72.666H71.9993V213.599H72.666ZM89.066 229.999V229.333C80.3767 229.333 73.3327 222.289 73.3327 213.599H72.666H71.9993C71.9993 223.025 79.6404 230.666 89.066 230.666V229.999ZM319.333 213.599H318.666C318.666 222.289 311.622 229.333 302.933 229.333V229.999V230.666C312.358 230.666 319.999 223.025 319.999 213.599H319.333ZM302.933 180.666V181.333C311.622 181.333 318.666 188.377 318.666 197.066H319.333H319.999C319.999 187.64 312.358 179.999 302.933 179.999V180.666ZM89.066 180.666V179.999C79.6404 179.999 71.9993 187.64 71.9993 197.066H72.666H73.3327C73.3327 188.377 80.3767 181.333 89.066 181.333V180.666Z" fill="#3F3F47" fill-opacity="0.3" mask="url(#path-14-inside-3_37857_937)"/>
<path d="M81.332 205.332C81.332 196.495 88.4955 189.332 97.332 189.332C106.169 189.332 113.332 196.495 113.332 205.332C113.332 214.169 106.169 221.332 97.332 221.332C88.4955 221.332 81.332 214.169 81.332 205.332Z" fill="#3F3F47" fill-opacity="0.5"/>
<path d="M125.332 199.332C125.332 197.123 127.123 195.332 129.332 195.332H185.332C187.541 195.332 189.332 197.123 189.332 199.332C189.332 201.541 187.541 203.332 185.332 203.332H129.332C127.123 203.332 125.332 201.541 125.332 199.332Z" fill="#52525C" fill-opacity="0.5"/>
<path d="M125.332 212.332C125.332 210.675 126.675 209.332 128.332 209.332H162.332C163.989 209.332 165.332 210.675 165.332 212.332C165.332 213.989 163.989 215.332 162.332 215.332H128.332C126.675 215.332 125.332 213.989 125.332 212.332Z" fill="#3F3F47" fill-opacity="0.5"/>
<path d="M262.666 201.332C262.666 199.123 264.457 197.332 266.666 197.332H306.666C308.875 197.332 310.666 199.123 310.666 201.332V209.332C310.666 211.541 308.875 213.332 306.666 213.332H266.666C264.457 213.332 262.666 211.541 262.666 209.332V201.332Z" fill="#C9A367" fill-opacity="0.1"/>
<path d="M268.666 205.332C268.666 204.227 269.561 203.332 270.666 203.332H302.666C303.771 203.332 304.666 204.227 304.666 205.332C304.666 206.437 303.771 207.332 302.666 207.332H270.666C269.561 207.332 268.666 206.437 268.666 205.332Z" fill="#C9A367" fill-opacity="0.4"/>
<mask id="path-21-inside-4_37857_937" fill="white">
<path d="M72.666 258.4C72.666 249.343 80.0085 242 89.066 242H302.933C311.99 242 319.333 249.343 319.333 258.4V274.933C319.333 283.991 311.99 291.333 302.933 291.333H89.066C80.0085 291.333 72.666 283.991 72.666 274.933V258.4Z"/>
</mask>
<path d="M72.666 258.4C72.666 249.343 80.0085 242 89.066 242H302.933C311.99 242 319.333 249.343 319.333 258.4V274.933C319.333 283.991 311.99 291.333 302.933 291.333H89.066C80.0085 291.333 72.666 283.991 72.666 274.933V258.4Z" fill="#27272A" fill-opacity="0.3"/>
<path d="M89.066 242V242.667H302.933V242V241.333H89.066V242ZM319.333 258.4H318.666V274.933H319.333H319.999V258.4H319.333ZM302.933 291.333V290.667H89.066V291.333V292H302.933V291.333ZM72.666 274.933H73.3327V258.4H72.666H71.9993V274.933H72.666ZM89.066 291.333V290.667C80.3767 290.667 73.3327 283.623 73.3327 274.933H72.666H71.9993C71.9993 284.359 79.6404 292 89.066 292V291.333ZM319.333 274.933H318.666C318.666 283.623 311.622 290.667 302.933 290.667V291.333V292C312.358 292 319.999 284.359 319.999 274.933H319.333ZM302.933 242V242.667C311.622 242.667 318.666 249.711 318.666 258.4H319.333H319.999C319.999 248.974 312.358 241.333 302.933 241.333V242ZM89.066 242V241.333C79.6404 241.333 71.9993 248.974 71.9993 258.4H72.666H73.3327C73.3327 249.711 80.3767 242.667 89.066 242.667V242Z" fill="#3F3F47" fill-opacity="0.3" mask="url(#path-21-inside-4_37857_937)"/>
<path d="M81.332 266.666C81.332 257.829 88.4955 250.666 97.332 250.666C106.169 250.666 113.332 257.829 113.332 266.666C113.332 275.503 106.169 282.666 97.332 282.666C88.4955 282.666 81.332 275.503 81.332 266.666Z" fill="#3F3F47" fill-opacity="0.5"/>
<path d="M125.332 260.666C125.332 258.457 127.123 256.666 129.332 256.666H185.332C187.541 256.666 189.332 258.457 189.332 260.666C189.332 262.875 187.541 264.666 185.332 264.666H129.332C127.123 264.666 125.332 262.875 125.332 260.666Z" fill="#52525C" fill-opacity="0.5"/>
<path d="M125.332 273.666C125.332 272.009 126.675 270.666 128.332 270.666H162.332C163.989 270.666 165.332 272.009 165.332 273.666C165.332 275.323 163.989 276.666 162.332 276.666H128.332C126.675 276.666 125.332 275.323 125.332 273.666Z" fill="#3F3F47" fill-opacity="0.5"/>
<path d="M262.666 262.666C262.666 260.457 264.457 258.666 266.666 258.666H306.666C308.875 258.666 310.666 260.457 310.666 262.666V270.666C310.666 272.875 308.875 274.666 306.666 274.666H266.666C264.457 274.666 262.666 272.875 262.666 270.666V262.666Z" fill="#C9A367" fill-opacity="0.1"/>
<path d="M268.666 266.666C268.666 265.561 269.561 264.666 270.666 264.666H302.666C303.771 264.666 304.666 265.561 304.666 266.666C304.666 267.771 303.771 268.666 302.666 268.666H270.666C269.561 268.666 268.666 267.771 268.666 266.666Z" fill="#C9A367" fill-opacity="0.4"/>
<mask id="path-28-inside-5_37857_937" fill="white">
<path d="M72.666 319.732C72.666 310.675 80.0085 303.332 89.066 303.332H302.933C311.99 303.332 319.333 310.675 319.333 319.732V336.265C319.333 345.323 311.99 352.665 302.933 352.665H89.066C80.0085 352.665 72.666 345.323 72.666 336.265V319.732Z"/>
</mask>
<path d="M72.666 319.732C72.666 310.675 80.0085 303.332 89.066 303.332H302.933C311.99 303.332 319.333 310.675 319.333 319.732V336.265C319.333 345.323 311.99 352.665 302.933 352.665H89.066C80.0085 352.665 72.666 345.323 72.666 336.265V319.732Z" fill="#27272A" fill-opacity="0.3"/>
<path d="M89.066 303.332V303.999H302.933V303.332V302.665H89.066V303.332ZM319.333 319.732H318.666V336.265H319.333H319.999V319.732H319.333ZM302.933 352.665V351.999H89.066V352.665V353.332H302.933V352.665ZM72.666 336.265H73.3327V319.732H72.666H71.9993V336.265H72.666ZM89.066 352.665V351.999C80.3767 351.999 73.3327 344.955 73.3327 336.265H72.666H71.9993C71.9993 345.691 79.6404 353.332 89.066 353.332V352.665ZM319.333 336.265H318.666C318.666 344.955 311.622 351.999 302.933 351.999V352.665V353.332C312.358 353.332 319.999 345.691 319.999 336.265H319.333ZM302.933 303.332V303.999C311.622 303.999 318.666 311.043 318.666 319.732H319.333H319.999C319.999 310.306 312.358 302.665 302.933 302.665V303.332ZM89.066 303.332V302.665C79.6404 302.665 71.9993 310.306 71.9993 319.732H72.666H73.3327C73.3327 311.043 80.3767 303.999 89.066 303.999V303.332Z" fill="#3F3F47" fill-opacity="0.3" mask="url(#path-28-inside-5_37857_937)"/>
<path d="M81.332 327.998C81.332 319.161 88.4955 311.998 97.332 311.998C106.169 311.998 113.332 319.161 113.332 327.998C113.332 336.835 106.169 343.998 97.332 343.998C88.4955 343.998 81.332 336.835 81.332 327.998Z" fill="#3F3F47" fill-opacity="0.5"/>
<path d="M125.332 321.998C125.332 319.789 127.123 317.998 129.332 317.998H185.332C187.541 317.998 189.332 319.789 189.332 321.998C189.332 324.207 187.541 325.998 185.332 325.998H129.332C127.123 325.998 125.332 324.207 125.332 321.998Z" fill="#52525C" fill-opacity="0.5"/>
<path d="M125.332 334.998C125.332 333.341 126.675 331.998 128.332 331.998H162.332C163.989 331.998 165.332 333.341 165.332 334.998C165.332 336.655 163.989 337.998 162.332 337.998H128.332C126.675 337.998 125.332 336.655 125.332 334.998Z" fill="#3F3F47" fill-opacity="0.5"/>
<path d="M262.666 323.998C262.666 321.789 264.457 319.998 266.666 319.998H306.666C308.875 319.998 310.666 321.789 310.666 323.998V331.998C310.666 334.207 308.875 335.998 306.666 335.998H266.666C264.457 335.998 262.666 334.207 262.666 331.998V323.998Z" fill="#C9A367" fill-opacity="0.1"/>
<path d="M268.666 327.998C268.666 326.893 269.561 325.998 270.666 325.998H302.666C303.771 325.998 304.666 326.893 304.666 327.998C304.666 329.103 303.771 329.998 302.666 329.998H270.666C269.561 329.998 268.666 329.103 268.666 327.998Z" fill="#C9A367" fill-opacity="0.4"/>
<g filter="url(#filter2_dd_37857_937)">
<path d="M176 432.666C176 421.62 184.954 412.666 196 412.666C207.046 412.666 216 421.62 216 432.666C216 443.712 207.046 452.666 196 452.666C184.954 452.666 176 443.712 176 432.666Z" fill="url(#paint1_linear_37857_937)" shape-rendering="crispEdges"/>
<path d="M196 414.166C206.217 414.166 214.5 422.449 214.5 432.666C214.5 442.883 206.217 451.166 196 451.166C185.783 451.166 177.5 442.883 177.5 432.666C177.5 422.449 185.783 414.166 196 414.166Z" stroke="#0F0B18" stroke-width="3" shape-rendering="crispEdges"/>
<path d="M196.001 444.333C202.444 444.333 207.667 439.11 207.667 432.667C207.667 426.223 202.444 421 196.001 421C189.557 421 184.334 426.223 184.334 432.667C184.334 439.11 189.557 444.333 196.001 444.333Z" stroke="#0F0B18" stroke-width="2.33333" stroke-linecap="round" stroke-linejoin="round"/>
<path d="M191.334 432.666H200.667" stroke="#0F0B18" stroke-width="2.33333" stroke-linecap="round" stroke-linejoin="round"/>
<path d="M196 428V437.333" stroke="#0F0B18" stroke-width="2.33333" stroke-linecap="round" stroke-linejoin="round"/>
</g>
</g>
</g>
<path d="M80 96V96.6667H312V96V95.3333H80V96ZM336 120H335.333V445.333H336H336.667V120H336ZM312 469.333V468.667H80V469.333V470H312V469.333ZM56 445.333H56.6667V120H56H55.3333V445.333H56ZM80 469.333V468.667C67.1134 468.667 56.6667 458.22 56.6667 445.333H56H55.3333C55.3333 458.956 66.377 470 80 470V469.333ZM336 445.333H335.333C335.333 458.22 324.887 468.667 312 468.667V469.333V470C325.623 470 336.667 458.956 336.667 445.333H336ZM312 96V96.6667C324.887 96.6667 335.333 107.113 335.333 120H336H336.667C336.667 106.377 325.623 95.3333 312 95.3333V96ZM80 96V95.3333C66.377 95.3333 55.3333 106.377 55.3333 120H56H56.6667C56.6667 107.113 67.1134 96.6667 80 96.6667V96Z" fill="#27272A" fill-opacity="0.5" mask="url(#path-2-inside-1_37857_937)"/>
</g>
<defs>
<filter id="filter0_f_37857_937" x="-40" y="0" width="472" height="565.334" filterUnits="userSpaceOnUse" color-interpolation-filters="sRGB">
<feFlood flood-opacity="0" result="BackgroundImageFix"/>
<feBlend mode="normal" in="SourceGraphic" in2="BackgroundImageFix" result="shape"/>
<feGaussianBlur stdDeviation="40" result="effect1_foregroundBlur_37857_937"/>
</filter>
<filter id="filter1_d_37857_937" x="18" y="83" width="356" height="449.334" filterUnits="userSpaceOnUse" color-interpolation-filters="sRGB">
<feFlood flood-opacity="0" result="BackgroundImageFix"/>
<feColorMatrix in="SourceAlpha" type="matrix" values="0 0 0 0 0 0 0 0 0 0 0 0 0 0 0 0 0 0 127 0" result="hardAlpha"/>
<feMorphology radius="12" operator="erode" in="SourceAlpha" result="effect1_dropShadow_37857_937"/>
<feOffset dy="25"/>
<feGaussianBlur stdDeviation="25"/>
<feComposite in2="hardAlpha" operator="out"/>
<feColorMatrix type="matrix" values="0 0 0 0 0 0 0 0 0 0 0 0 0 0 0 0 0 0 0.25 0"/>
<feBlend mode="normal" in2="BackgroundImageFix" result="effect1_dropShadow_37857_937"/>
<feBlend mode="normal" in="SourceGraphic" in2="effect1_dropShadow_37857_937" result="shape"/>
</filter>
<filter id="filter2_dd_37857_937" x="164" y="410.666" width="64" height="64" filterUnits="userSpaceOnUse" color-interpolation-filters="sRGB">
<feFlood flood-opacity="0" result="BackgroundImageFix"/>
<feColorMatrix in="SourceAlpha" type="matrix" values="0 0 0 0 0 0 0 0 0 0 0 0 0 0 0 0 0 0 127 0" result="hardAlpha"/>
<feMorphology radius="4" operator="erode" in="SourceAlpha" result="effect1_dropShadow_37857_937"/>
<feOffset dy="4"/>
<feGaussianBlur stdDeviation="3"/>
<feComposite in2="hardAlpha" operator="out"/>
<feColorMatrix type="matrix" values="0 0 0 0 0.788235 0 0 0 0 0.639216 0 0 0 0 0.403922 0 0 0 0.2 0"/>
<feBlend mode="normal" in2="BackgroundImageFix" result="effect1_dropShadow_37857_937"/>
<feColorMatrix in="SourceAlpha" type="matrix" values="0 0 0 0 0 0 0 0 0 0 0 0 0 0 0 0 0 0 127 0" result="hardAlpha"/>
<feMorphology radius="3" operator="erode" in="SourceAlpha" result="effect2_dropShadow_37857_937"/>
<feOffset dy="10"/>
<feGaussianBlur stdDeviation="7.5"/>
<feComposite in2="hardAlpha" operator="out"/>
<feColorMatrix type="matrix" values="0 0 0 0 0.788235 0 0 0 0 0.639216 0 0 0 0 0.403922 0 0 0 0.2 0"/>
<feBlend mode="normal" in2="effect1_dropShadow_37857_937" result="effect2_dropShadow_37857_937"/>
<feBlend mode="normal" in="SourceGraphic" in2="effect2_dropShadow_37857_937" result="shape"/>
</filter>
<linearGradient id="paint0_linear_37857_937" x1="196" y1="96" x2="196" y2="469.333" gradientUnits="userSpaceOnUse">
<stop stop-color="#27272A" stop-opacity="0.3"/>
<stop offset="1" stop-color="#18181B" stop-opacity="0.3"/>
</linearGradient>
<linearGradient id="paint1_linear_37857_937" x1="196" y1="412.666" x2="196" y2="452.666" gradientUnits="userSpaceOnUse">
<stop stop-color="#C9A367"/>
<stop offset="1" stop-color="#D0AA69" stop-opacity="0.7"/>
</linearGradient>
<clipPath id="clip0_37857_937">
<path d="M56 120C56 106.745 66.7452 96 80 96H312C325.255 96 336 106.745 336 120V445.333C336 458.588 325.255 469.333 312 469.333H80C66.7452 469.333 56 458.588 56 445.333V120Z" fill="white"/>
</clipPath>
<clipPath id="clip1_37857_937">
<rect width="278.667" height="348" fill="white" transform="translate(56.666 120.666)"/>
</clipPath>
<clipPath id="clip2_37857_937">
<rect width="10" height="10" fill="white" transform="translate(302.332 143.666)"/>
</clipPath>
</defs>
</svg>
