<svg width="393" height="566" viewBox="0 0 393 566" fill="none" xmlns="http://www.w3.org/2000/svg">
<g filter="url(#filter0_f_37857_1067)">
<path d="M40 236C40 149.844 109.844 80 196 80C282.156 80 352 149.844 352 236V329.333C352 415.49 282.156 485.333 196 485.333C109.844 485.333 40 415.49 40 329.333V236Z" fill="#C9A367" fill-opacity="0.1"/>
</g>
<g filter="url(#filter1_d_37857_1067)">
<g clip-path="url(#clip0_37857_1067)">
<mask id="path-2-inside-1_37857_1067" fill="white">
<path d="M56 120C56 106.745 66.7452 96 80 96H312C325.255 96 336 106.745 336 120V445.333C336 458.588 325.255 469.333 312 469.333H80C66.7452 469.333 56 458.588 56 445.333V120Z"/>
</mask>
<path d="M56 120C56 106.745 66.7452 96 80 96H312C325.255 96 336 106.745 336 120V445.333C336 458.588 325.255 469.333 312 469.333H80C66.7452 469.333 56 458.588 56 445.333V120Z" fill="url(#paint0_linear_37857_1067)" shape-rendering="crispEdges"/>
<g opacity="0.3">
<path d="M75.1362 106.102C75.3748 106.104 75.6135 106.15 75.8521 106.239C76.0907 106.328 76.3085 106.475 76.5055 106.682C76.7025 106.886 76.8606 107.166 76.9799 107.52C77.0993 107.874 77.1589 108.318 77.1589 108.852C77.1589 109.369 77.1097 109.829 77.0112 110.23C76.9146 110.63 76.7744 110.967 76.5907 111.241C76.4089 111.516 76.1873 111.724 75.926 111.866C75.6665 112.009 75.3729 112.08 75.0453 112.08C74.7195 112.08 74.4288 112.015 74.1731 111.886C73.9193 111.756 73.711 111.575 73.5481 111.344C73.3871 111.111 73.2839 110.841 73.2385 110.534H73.9316C73.9941 110.801 74.1182 111.022 74.3038 111.196C74.4913 111.368 74.7385 111.455 75.0453 111.455C75.4941 111.455 75.8483 111.259 76.1078 110.866C76.3691 110.474 76.4998 109.92 76.4998 109.205H76.4544C76.3483 109.364 76.2224 109.501 76.0765 109.616C75.9307 109.732 75.7688 109.821 75.5907 109.884C75.4127 109.946 75.2233 109.977 75.0225 109.977C74.6892 109.977 74.3833 109.895 74.1049 109.73C73.8284 109.563 73.6068 109.335 73.4402 109.045C73.2754 108.754 73.193 108.42 73.193 108.045C73.193 107.689 73.2725 107.364 73.4316 107.068C73.5926 106.771 73.818 106.534 74.1078 106.358C74.3994 106.182 74.7422 106.097 75.1362 106.102ZM75.1362 106.727C74.8975 106.727 74.6826 106.787 74.4913 106.906C74.3019 107.024 74.1513 107.183 74.0396 107.384C73.9297 107.582 73.8748 107.803 73.8748 108.045C73.8748 108.288 73.9279 108.509 74.0339 108.707C74.1419 108.904 74.2886 109.062 74.4743 109.179C74.6618 109.295 74.8748 109.352 75.1135 109.352C75.2934 109.352 75.461 109.317 75.6163 109.247C75.7716 109.175 75.907 109.078 76.0225 108.955C76.14 108.83 76.2318 108.688 76.2981 108.531C76.3644 108.372 76.3975 108.206 76.3975 108.034C76.3975 107.807 76.3426 107.594 76.2328 107.395C76.1248 107.196 75.9752 107.035 75.7839 106.912C75.5945 106.789 75.3786 106.727 75.1362 106.727ZM78.7761 111.256C78.6359 111.256 78.5157 111.205 78.4153 111.105C78.3149 111.005 78.2647 110.884 78.2647 110.744C78.2647 110.604 78.3149 110.484 78.4153 110.384C78.5157 110.283 78.6359 110.233 78.7761 110.233C78.9163 110.233 79.0365 110.283 79.1369 110.384C79.2373 110.484 79.2875 110.604 79.2875 110.744C79.2875 110.837 79.2638 110.922 79.2164 111C79.171 111.078 79.1094 111.14 79.0318 111.188C78.956 111.233 78.8708 111.256 78.7761 111.256ZM78.7761 108.312C78.6359 108.312 78.5157 108.262 78.4153 108.162C78.3149 108.062 78.2647 107.941 78.2647 107.801C78.2647 107.661 78.3149 107.541 78.4153 107.44C78.5157 107.34 78.6359 107.29 78.7761 107.29C78.9163 107.29 79.0365 107.34 79.1369 107.44C79.2373 107.541 79.2875 107.661 79.2875 107.801C79.2875 107.894 79.2638 107.979 79.2164 108.057C79.171 108.134 79.1094 108.197 79.0318 108.244C78.956 108.29 78.8708 108.312 78.7761 108.312ZM80.3429 110.807V110.227L82.8997 106.182H83.3201V107.08H83.036L81.1042 110.136V110.182H84.5474V110.807H80.3429ZM83.0815 112V110.631V110.361V106.182H83.752V112H83.0815ZM87.5794 106.182V112H86.8748V106.92H86.8407L85.4203 107.864V107.148L86.8748 106.182H87.5794Z" fill="white"/>
<path d="M299.332 108.666C299.332 107.561 300.227 106.666 301.332 106.666H309.332C310.437 106.666 311.332 107.561 311.332 108.666C311.332 109.771 310.437 110.666 309.332 110.666H301.332C300.227 110.666 299.332 109.771 299.332 108.666Z" fill="white"/>
<path d="M315.332 108.666C315.332 107.561 316.227 106.666 317.332 106.666C318.437 106.666 319.332 107.561 319.332 108.666C319.332 109.771 318.437 110.666 317.332 110.666C316.227 110.666 315.332 109.771 315.332 108.666Z" fill="white"/>
</g>
<mask id="path-7-inside-2_37857_1067" fill="white">
<path d="M72.666 153.066C72.666 144.009 80.0085 136.666 89.066 136.666H302.933C311.99 136.666 319.333 144.009 319.333 153.066V336.266C319.333 345.323 311.99 352.666 302.933 352.666H89.066C80.0085 352.666 72.666 345.323 72.666 336.266V153.066Z"/>
</mask>
<path d="M72.666 153.066C72.666 144.009 80.0085 136.666 89.066 136.666H302.933C311.99 136.666 319.333 144.009 319.333 153.066V336.266C319.333 345.323 311.99 352.666 302.933 352.666H89.066C80.0085 352.666 72.666 345.323 72.666 336.266V153.066Z" fill="#27272A" fill-opacity="0.3"/>
<path d="M89.066 136.666V137.333H302.933V136.666V135.999H89.066V136.666ZM319.333 153.066H318.666V336.266H319.333H319.999V153.066H319.333ZM302.933 352.666V351.999H89.066V352.666V353.333H302.933V352.666ZM72.666 336.266H73.3327V153.066H72.666H71.9993V336.266H72.666ZM89.066 352.666V351.999C80.3767 351.999 73.3327 344.955 73.3327 336.266H72.666H71.9993C71.9993 345.692 79.6404 353.333 89.066 353.333V352.666ZM319.333 336.266H318.666C318.666 344.955 311.622 351.999 302.933 351.999V352.666V353.333C312.358 353.333 319.999 345.692 319.999 336.266H319.333ZM302.933 136.666V137.333C311.622 137.333 318.666 144.377 318.666 153.066H319.333H319.999C319.999 143.64 312.358 135.999 302.933 135.999V136.666ZM89.066 136.666V135.999C79.6404 135.999 71.9993 143.64 71.9993 153.066H72.666H73.3327C73.3327 144.377 80.3767 137.333 89.066 137.333V136.666Z" fill="#3F3F47" fill-opacity="0.3" mask="url(#path-7-inside-2_37857_1067)"/>
<path d="M85.332 153.332C85.332 151.123 87.1229 149.332 89.332 149.332H129.332C131.541 149.332 133.332 151.123 133.332 153.332C133.332 155.541 131.541 157.332 129.332 157.332H89.332C87.1229 157.332 85.332 155.541 85.332 153.332Z" fill="#52525C" fill-opacity="0.5"/>
<path d="M85.332 168.332C85.332 166.675 86.6752 165.332 88.332 165.332H303.665C305.322 165.332 306.665 166.675 306.665 168.332C306.665 169.989 305.322 171.332 303.665 171.332H88.332C86.6752 171.332 85.332 169.989 85.332 168.332Z" fill="#3F3F47" fill-opacity="0.3"/>
<path d="M85.332 182.332C85.332 180.675 86.6752 179.332 88.332 179.332H259.395C261.051 179.332 262.395 180.675 262.395 182.332C262.395 183.989 261.051 185.332 259.395 185.332H88.332C86.6752 185.332 85.332 183.989 85.332 182.332Z" fill="#3F3F47" fill-opacity="0.3"/>
<path d="M85.332 196.332C85.332 194.675 86.6752 193.332 88.332 193.332H281.53C283.187 193.332 284.53 194.675 284.53 196.332C284.53 197.989 283.187 199.332 281.53 199.332H88.332C86.6752 199.332 85.332 197.989 85.332 196.332Z" fill="#3F3F47" fill-opacity="0.3"/>
<mask id="path-13-inside-3_37857_1067" fill="white">
<path d="M72.666 378.666C72.666 373.143 77.1432 368.666 82.666 368.666H110.666C116.189 368.666 120.666 373.143 120.666 378.666V406.666C120.666 412.189 116.189 416.666 110.666 416.666H82.666C77.1432 416.666 72.666 412.189 72.666 406.666V378.666Z"/>
</mask>
<path d="M72.666 378.666C72.666 373.143 77.1432 368.666 82.666 368.666H110.666C116.189 368.666 120.666 373.143 120.666 378.666V406.666C120.666 412.189 116.189 416.666 110.666 416.666H82.666C77.1432 416.666 72.666 412.189 72.666 406.666V378.666Z" fill="#27272A"/>
<path d="M82.666 368.666V369.333H110.666V368.666V367.999H82.666V368.666ZM120.666 378.666H119.999V406.666H120.666H121.333V378.666H120.666ZM110.666 416.666V415.999H82.666V416.666V417.333H110.666V416.666ZM72.666 406.666H73.3327V378.666H72.666H71.9993V406.666H72.666ZM82.666 416.666V415.999C77.5114 415.999 73.3327 411.821 73.3327 406.666H72.666H71.9993C71.9993 412.557 76.775 417.333 82.666 417.333V416.666ZM120.666 406.666H119.999C119.999 411.821 115.821 415.999 110.666 415.999V416.666V417.333C116.557 417.333 121.333 412.557 121.333 406.666H120.666ZM110.666 368.666V369.333C115.821 369.333 119.999 373.511 119.999 378.666H120.666H121.333C121.333 372.775 116.557 367.999 110.666 367.999V368.666ZM82.666 368.666V367.999C76.775 367.999 71.9993 372.775 71.9993 378.666H72.666H73.3327C73.3327 373.511 77.5114 369.333 82.666 369.333V368.666Z" fill="#3F3F47" mask="url(#path-13-inside-3_37857_1067)"/>
<g clip-path="url(#clip1_37857_1067)">
<path d="M97.8303 384C98.0407 384 98.2473 384.057 98.428 384.165C98.6088 384.273 98.757 384.427 98.8569 384.613L99.1404 385.137C99.2404 385.323 99.3886 385.477 99.5694 385.585C99.7501 385.693 99.9567 385.75 100.167 385.75H101.332C101.641 385.75 101.938 385.873 102.157 386.092C102.376 386.311 102.499 386.607 102.499 386.917V392.167C102.499 392.476 102.376 392.773 102.157 392.992C101.938 393.21 101.641 393.333 101.332 393.333H91.9987C91.6893 393.333 91.3925 393.21 91.1737 392.992C90.9549 392.773 90.832 392.476 90.832 392.167V386.917C90.832 386.607 90.9549 386.311 91.1737 386.092C91.3925 385.873 91.6893 385.75 91.9987 385.75H93.1636C93.3739 385.75 93.5802 385.693 93.7608 385.586C93.9414 385.478 94.0896 385.324 94.1897 385.139L94.4749 384.611C94.575 384.426 94.7232 384.272 94.9038 384.164C95.0844 384.057 95.2908 384 95.501 384H97.8303Z" stroke="#C9A367" stroke-width="1.16667" stroke-linecap="round" stroke-linejoin="round"/>
<path d="M96.666 391C97.6325 391 98.416 390.216 98.416 389.25C98.416 388.284 97.6325 387.5 96.666 387.5C95.6995 387.5 94.916 388.284 94.916 389.25C94.916 390.216 95.6995 391 96.666 391Z" stroke="#C9A367" stroke-width="1.16667" stroke-linecap="round" stroke-linejoin="round"/>
</g>
<path d="M84.666 401.666C84.666 400.561 85.5614 399.666 86.666 399.666H106.666C107.771 399.666 108.666 400.561 108.666 401.666C108.666 402.771 107.771 403.666 106.666 403.666H86.666C85.5614 403.666 84.666 402.771 84.666 401.666Z" fill="#3F3F47"/>
<mask id="path-18-inside-4_37857_1067" fill="white">
<path d="M128.666 378.666C128.666 373.143 133.143 368.666 138.666 368.666H166.666C172.189 368.666 176.666 373.143 176.666 378.666V406.666C176.666 412.189 172.189 416.666 166.666 416.666H138.666C133.143 416.666 128.666 412.189 128.666 406.666V378.666Z"/>
</mask>
<path d="M128.666 378.666C128.666 373.143 133.143 368.666 138.666 368.666H166.666C172.189 368.666 176.666 373.143 176.666 378.666V406.666C176.666 412.189 172.189 416.666 166.666 416.666H138.666C133.143 416.666 128.666 412.189 128.666 406.666V378.666Z" fill="#27272A"/>
<path d="M138.666 368.666V369.333H166.666V368.666V367.999H138.666V368.666ZM176.666 378.666H175.999V406.666H176.666H177.333V378.666H176.666ZM166.666 416.666V415.999H138.666V416.666V417.333H166.666V416.666ZM128.666 406.666H129.333V378.666H128.666H127.999V406.666H128.666ZM138.666 416.666V415.999C133.511 415.999 129.333 411.821 129.333 406.666H128.666H127.999C127.999 412.557 132.775 417.333 138.666 417.333V416.666ZM176.666 406.666H175.999C175.999 411.821 171.821 415.999 166.666 415.999V416.666V417.333C172.557 417.333 177.333 412.557 177.333 406.666H176.666ZM166.666 368.666V369.333C171.821 369.333 175.999 373.511 175.999 378.666H176.666H177.333C177.333 372.775 172.557 367.999 166.666 367.999V368.666ZM138.666 368.666V367.999C132.775 367.999 127.999 372.775 127.999 378.666H128.666H129.333C129.333 373.511 133.511 369.333 138.666 369.333V368.666Z" fill="#3F3F47" mask="url(#path-18-inside-4_37857_1067)"/>
<g clip-path="url(#clip2_37857_1067)">
<path d="M155 389.249L158.047 391.28C158.091 391.309 158.142 391.326 158.194 391.329C158.247 391.331 158.299 391.319 158.346 391.295C158.393 391.27 158.431 391.233 158.459 391.187C158.486 391.142 158.5 391.09 158.5 391.038V386.257C158.5 386.205 158.486 386.155 158.461 386.11C158.435 386.066 158.398 386.029 158.354 386.004C158.309 385.978 158.259 385.965 158.207 385.965C158.156 385.965 158.106 385.979 158.061 386.005L155 387.791" stroke="#71717B" stroke-width="1.16667" stroke-linecap="round" stroke-linejoin="round"/>
<path d="M153.832 385.166H147.999C147.354 385.166 146.832 385.688 146.832 386.333V390.999C146.832 391.644 147.354 392.166 147.999 392.166H153.832C154.476 392.166 154.999 391.644 154.999 390.999V386.333C154.999 385.688 154.476 385.166 153.832 385.166Z" stroke="#71717B" stroke-width="1.16667" stroke-linecap="round" stroke-linejoin="round"/>
</g>
<path d="M140.666 401.666C140.666 400.561 141.561 399.666 142.666 399.666H162.666C163.771 399.666 164.666 400.561 164.666 401.666C164.666 402.771 163.771 403.666 162.666 403.666H142.666C141.561 403.666 140.666 402.771 140.666 401.666Z" fill="#3F3F47"/>
<mask id="path-23-inside-5_37857_1067" fill="white">
<path d="M72.666 442.666C72.666 437.143 77.1432 432.666 82.666 432.666H119.999C125.522 432.666 129.999 437.143 129.999 442.666C129.999 448.189 125.522 452.666 119.999 452.666H82.666C77.1432 452.666 72.666 448.189 72.666 442.666Z"/>
</mask>
<path d="M72.666 442.666C72.666 437.143 77.1432 432.666 82.666 432.666H119.999C125.522 432.666 129.999 437.143 129.999 442.666C129.999 448.189 125.522 452.666 119.999 452.666H82.666C77.1432 452.666 72.666 448.189 72.666 442.666Z" fill="#C9A367" fill-opacity="0.2"/>
<path d="M72.666 442.666M129.999 442.666M129.999 442.666M72.666 442.666M82.666 432.666V433.333H119.999V432.666V431.999H82.666V432.666ZM129.999 442.666M119.999 452.666V451.999H82.666V452.666V453.333H119.999V452.666ZM72.666 442.666M82.666 452.666V451.999C77.5114 451.999 73.3327 447.821 73.3327 442.666H72.666H71.9993C71.9993 448.557 76.775 453.333 82.666 453.333V452.666ZM129.999 442.666H129.333C129.333 447.821 125.154 451.999 119.999 451.999V452.666V453.333C125.89 453.333 130.666 448.557 130.666 442.666H129.999ZM119.999 432.666V433.333C125.154 433.333 129.333 437.511 129.333 442.666H129.999H130.666C130.666 436.775 125.89 431.999 119.999 431.999V432.666ZM82.666 432.666V431.999C76.775 431.999 71.9993 436.775 71.9993 442.666H72.666H73.3327C73.3327 437.511 77.5114 433.333 82.666 433.333V432.666Z" fill="#C9A367" fill-opacity="0.3" mask="url(#path-23-inside-5_37857_1067)"/>
<path d="M85.332 442.666C85.332 441.561 86.2275 440.666 87.332 440.666H115.332C116.437 440.666 117.332 441.561 117.332 442.666C117.332 443.771 116.437 444.666 115.332 444.666H87.332C86.2275 444.666 85.332 443.771 85.332 442.666Z" fill="#C9A367"/>
<mask id="path-26-inside-6_37857_1067" fill="white">
<path d="M138 442.666C138 437.143 142.477 432.666 148 432.666H185.333C190.856 432.666 195.333 437.143 195.333 442.666C195.333 448.189 190.856 452.666 185.333 452.666H148C142.477 452.666 138 448.189 138 442.666Z"/>
</mask>
<path d="M138 442.666C138 437.143 142.477 432.666 148 432.666H185.333C190.856 432.666 195.333 437.143 195.333 442.666C195.333 448.189 190.856 452.666 185.333 452.666H148C142.477 452.666 138 448.189 138 442.666Z" fill="#27272A"/>
<path d="M138 442.666M195.333 442.666M195.333 442.666M138 442.666M148 432.666V433.333H185.333V432.666V431.999H148V432.666ZM195.333 442.666M185.333 452.666V451.999H148V452.666V453.333H185.333V452.666ZM138 442.666M148 452.666V451.999C142.845 451.999 138.667 447.821 138.667 442.666H138H137.333C137.333 448.557 142.109 453.333 148 453.333V452.666ZM195.333 442.666H194.667C194.667 447.821 190.488 451.999 185.333 451.999V452.666V453.333C191.224 453.333 196 448.557 196 442.666H195.333ZM185.333 432.666V433.333C190.488 433.333 194.667 437.511 194.667 442.666H195.333H196C196 436.775 191.224 431.999 185.333 431.999V432.666ZM148 432.666V431.999C142.109 431.999 137.333 436.775 137.333 442.666H138H138.667C138.667 437.511 142.845 433.333 148 433.333V432.666Z" fill="#3F3F47" mask="url(#path-26-inside-6_37857_1067)"/>
<path d="M150.666 442.666C150.666 441.561 151.561 440.666 152.666 440.666H180.666C181.771 440.666 182.666 441.561 182.666 442.666C182.666 443.771 181.771 444.666 180.666 444.666H152.666C151.561 444.666 150.666 443.771 150.666 442.666Z" fill="#52525C"/>
</g>
<path d="M80 96V96.6667H312V96V95.3333H80V96ZM336 120H335.333V445.333H336H336.667V120H336ZM312 469.333V468.667H80V469.333V470H312V469.333ZM56 445.333H56.6667V120H56H55.3333V445.333H56ZM80 469.333V468.667C67.1134 468.667 56.6667 458.22 56.6667 445.333H56H55.3333C55.3333 458.956 66.377 470 80 470V469.333ZM336 445.333H335.333C335.333 458.22 324.887 468.667 312 468.667V469.333V470C325.623 470 336.667 458.956 336.667 445.333H336ZM312 96V96.6667C324.887 96.6667 335.333 107.113 335.333 120H336H336.667C336.667 106.377 325.623 95.3333 312 95.3333V96ZM80 96V95.3333C66.377 95.3333 55.3333 106.377 55.3333 120H56H56.6667C56.6667 107.113 67.1134 96.6667 80 96.6667V96Z" fill="#27272A" fill-opacity="0.5" mask="url(#path-2-inside-1_37857_1067)"/>
</g>
<defs>
<filter id="filter0_f_37857_1067" x="-40" y="0" width="472" height="565.334" filterUnits="userSpaceOnUse" color-interpolation-filters="sRGB">
<feFlood flood-opacity="0" result="BackgroundImageFix"/>
<feBlend mode="normal" in="SourceGraphic" in2="BackgroundImageFix" result="shape"/>
<feGaussianBlur stdDeviation="40" result="effect1_foregroundBlur_37857_1067"/>
</filter>
<filter id="filter1_d_37857_1067" x="18" y="83" width="356" height="449.334" filterUnits="userSpaceOnUse" color-interpolation-filters="sRGB">
<feFlood flood-opacity="0" result="BackgroundImageFix"/>
<feColorMatrix in="SourceAlpha" type="matrix" values="0 0 0 0 0 0 0 0 0 0 0 0 0 0 0 0 0 0 127 0" result="hardAlpha"/>
<feMorphology radius="12" operator="erode" in="SourceAlpha" result="effect1_dropShadow_37857_1067"/>
<feOffset dy="25"/>
<feGaussianBlur stdDeviation="25"/>
<feComposite in2="hardAlpha" operator="out"/>
<feColorMatrix type="matrix" values="0 0 0 0 0 0 0 0 0 0 0 0 0 0 0 0 0 0 0.25 0"/>
<feBlend mode="normal" in2="BackgroundImageFix" result="effect1_dropShadow_37857_1067"/>
<feBlend mode="normal" in="SourceGraphic" in2="effect1_dropShadow_37857_1067" result="shape"/>
</filter>
<linearGradient id="paint0_linear_37857_1067" x1="196" y1="96" x2="196" y2="469.333" gradientUnits="userSpaceOnUse">
<stop stop-color="#27272A" stop-opacity="0.3"/>
<stop offset="1" stop-color="#18181B" stop-opacity="0.3"/>
</linearGradient>
<clipPath id="clip0_37857_1067">
<path d="M56 120C56 106.745 66.7452 96 80 96H312C325.255 96 336 106.745 336 120V445.333C336 458.588 325.255 469.333 312 469.333H80C66.7452 469.333 56 458.588 56 445.333V120Z" fill="white"/>
</clipPath>
<clipPath id="clip1_37857_1067">
<rect width="14" height="14" fill="white" transform="translate(89.666 381.666)"/>
</clipPath>
<clipPath id="clip2_37857_1067">
<rect width="14" height="14" fill="white" transform="translate(145.666 381.666)"/>
</clipPath>
</defs>
</svg>
